<svg xmlns="http://www.w3.org/2000/svg" width="157" height="83" viewBox="0 0 157 83">
  <g fill="#D8D8D8">
    <polygon fill="#24357F" points="42.208 13.701 .072 13.701 .072 23.537 13.241 23.537 13.241 68.471 25.907 68.471 25.907 23.537 39.393 23.537"/>
    <path fill="#24357F" d="M69.0931273 68.6438229C84.2433287 68.6438229 88.4748309 60.6972158 88.4748309 52.1008218L88.4748309 13.7007868 76.5552992 13.7007868 76.5552992 49.3623647C76.5552992 55.4096538 74.33337 58.5024699 69.0931273 58.5024699 63.8536561 58.5024699 61.6311482 55.4096538 61.6311482 49.3623647L61.6311482 13.7007868 49.7118094 13.7007868 49.7118094 52.1008218C49.7118094 60.6972158 53.9433116 68.6438229 69.0931273 68.6438229M146.487822 45.8786717L135.682534 45.8786717 135.682534 45.7389762C135.682534 43.4053076 136.295686 37.9898363 141.089035 37.9898363 142.3516 37.9898363 146.487822 37.9318714 146.487822 45.0953721L146.487822 45.8786717 146.487822 45.8786717zM156.176552 50.0994855C156.176552 38.7167167 151.939071 31.1397328 141.089035 31.1397328 130.865846 31.1397328 125.430606 39.039195 125.430606 50.0994855 125.430606 56.8945224 128.269738 68.6484601 142.921163 68.6484601 148.86328 68.6484601 153.533768 65.5042484 155.762641 63.6889797L152.127318 58.0700514C152.127318 58.0700514 148.502795 61.663105 142.957809 61.663105 137.757299 61.663105 135.543085 57.8878483 135.543085 52.6667528L156.176552 52.6667528 156.176552 50.0994855z"/>
    <polygon fill="#CF285A" points="103.715 82.163 127.232 .008 118.485 .008 94.968 82.163"/>
  </g>
</svg>
