<svg xmlns="http://www.w3.org/2000/svg" width="44" height="46" viewBox="0 0 44 46" style="background:#cf285a">
  <path d="M41.7777143,9.83333333 L31.4285714,9.83333333 L31.4285714,2.78571429 C31.4285714,1.52857143 30.4634286,0.5 29.2062857,0.5 L15.1110476,0.5 C13.8539048,0.5 12.7619048,1.52857143 12.7619048,2.78571429 L12.7619048,9.83333333 L2.34914286,9.83333333 C1.08666667,9.83333333 0,10.8567619 0,12.1190476 L0,35.9285714 C0,37.1908571 1.08666667,38.2142857 2.34914286,38.2142857 L41.7777143,38.2142857 C43.0401905,38.2142857 44,37.1908571 44,35.9285714 L44,12.1190476 C44,10.8567619 43.0401905,9.83333333 41.7777143,9.83333333 Z M15.8095238,3.54761905 L28.3809524,3.54761905 L28.3809524,9.83333333 L15.8095238,9.83333333 L15.8095238,3.54761905 Z M29.9047619,27.1666667 L25.1428571,27.1666667 L25.1428571,31.9285714 L18.8571429,31.9285714 L18.8571429,27.1666667 L14.0952381,27.1666667 L14.0952381,20.8809524 L18.8571429,20.8809524 L18.8571429,16.1190476 L25.1428571,16.1190476 L25.1428571,20.8809524 L29.9047619,20.8809524 L29.9047619,27.1666667 Z"/>
</svg>
