<svg xmlns="http://www.w3.org/2000/svg" width="44" height="46" viewBox="0 0 44 46" style="background:#cf285a">
  <path d="M31.1666667,23.6825 L31.1666667,19.486 C29.0216667,18.7215 27.6705,18.5088333 26.9866667,16.8625 C26.3028333,15.2125 27.115,14.0905 28.0866667,12.05 L25.1203333,9.08183333 C23.0945,10.0443333 21.9615,10.8675 20.306,10.1818333 C18.656,9.49616667 18.4415,8.134 17.6825,6 L13.4841667,6 C12.7288333,8.123 12.5125,9.49616667 10.8606667,10.18 L10.8588333,10.18 C9.20883333,10.8656667 8.0905,10.0516667 6.04633333,9.08 L3.08183333,12.0481667 C4.048,14.0831667 4.86566667,15.2088333 4.18183333,16.8606667 C3.49433333,18.5125 2.123,18.7288333 -1.42108547e-14,19.4841667 L-1.42108547e-14,23.6806667 C2.1175,24.436 3.49616667,24.6541667 4.18,26.3041667 C4.86933333,27.9688333 4.0315,29.1165 3.08,31.1166667 L6.04633333,34.0848333 C8.07583333,33.1223333 9.207,32.2991667 10.8588333,32.9848333 L10.8606667,32.9848333 C12.5106667,33.6686667 12.727,35.0345 13.4841667,37.1648333 L17.6806667,37.1648333 C18.436,35.0418333 18.6523333,33.6723333 20.3151667,32.9811667 L20.317,32.9811667 C21.956,32.2991667 23.0688333,33.1113333 25.1185,34.0848333 L28.0848333,31.1166667 C27.1223333,29.0871667 26.2991667,27.9578333 26.983,26.3041667 C27.6686667,24.656 29.0473333,24.436 31.1666667,23.6825 Z M15.5833333,26.779 C12.716,26.779 10.3895,24.4525 10.3895,21.5833333 C10.3895,18.7141667 12.716,16.3876667 15.5833333,16.3876667 C18.4506667,16.3876667 20.7771667,18.7141667 20.7771667,21.5833333 C20.7771667,24.4525 18.4506667,26.779 15.5833333,26.779 Z M44,34.4881667 L44,32.5136667 C42.9916667,32.1543333 42.3555,32.0535 42.0328333,31.2798333 C41.7101667,30.5025 42.0933333,29.9763333 42.5498333,29.0138333 L41.1528333,27.6168333 C40.1995,28.0715 39.666,28.4565 38.8886667,28.1356667 C38.1113333,27.8148333 38.0105,27.1731667 37.653,26.1685 L35.6803333,26.1685 C35.3246667,27.1676667 35.222,27.813 34.4446667,28.1356667 C33.6673333,28.4583333 33.1411667,28.0751667 32.1805,27.6168333 L30.7835,29.0138333 C31.2381667,29.9726667 31.6231667,30.5025 31.3005,31.2798333 C30.9778333,32.0571667 30.3325,32.158 29.3333333,32.5136667 L29.3333333,34.4881667 C30.3306667,34.842 30.9778333,34.9465 31.3005,35.722 C31.625,36.5048333 31.2308333,37.0456667 30.7835,37.988 L32.1805,39.385 C33.1356667,38.9303333 33.6691667,38.5453333 34.4446667,38.8661667 C35.222,39.187 35.3228333,39.8305 35.6803333,40.8333333 L37.653,40.8333333 C38.0086667,39.8341667 38.1113333,39.1888333 38.8923333,38.8643333 L38.8941667,38.8643333 C39.666,38.5435 40.1885,38.9266667 41.1528333,39.385 L42.5498333,37.988 C42.097,37.0328333 41.7101667,36.4993333 42.0328333,35.7238333 C42.3555,34.9483333 43.0026667,34.842 44,34.4881667 Z M36.6666667,35.9438333 C35.3173333,35.9438333 34.2228333,34.8493333 34.2228333,33.5 C34.2228333,32.1506667 35.3173333,31.0561667 36.6666667,31.0561667 C38.016,31.0561667 39.1105,32.1506667 39.1105,33.5 C39.1105,34.8493333 38.016,35.9438333 36.6666667,35.9438333 Z"/>
</svg>
