<svg xmlns="http://www.w3.org/2000/svg" width="70" height="70" viewBox="0 0 70 70">
  <path fill="#000000" d="M24.7695035,32.6595745 L24.7695035,37.7234043 L33.145922,37.7234043 C32.8083333,39.8945213 30.6140071,44.0953901 24.7695035,44.0953901 C19.726773,44.0953901 15.6124113,39.9198404 15.6124113,34.7695035 C15.6124113,29.6212766 19.726773,25.443617 24.7695035,25.443617 C27.6390071,25.443617 29.5590426,26.6673759 30.6562057,27.7223404 L34.6650709,23.8611702 C32.0909574,21.4558511 28.7572695,20 24.7695035,20 C16.604078,20 10,26.604078 10,34.7695035 C10,42.9349291 16.604078,49.5390071 24.7695035,49.5390071 C33.293617,49.5390071 38.9503369,43.5468085 38.9503369,35.1070922 C38.9503369,34.1365248 38.8427305,33.3980496 38.7161348,32.6595745 L24.7695035,32.6595745 L24.7695035,32.6595745 Z M24.7695035,32.6595745 L60.6382979,36.8794326 L54.3085106,36.8794326 L54.3085106,43.2092199 L50.0886525,43.2092199 L50.0886525,36.8794326 L43.7588652,36.8794326 L43.7588652,32.6595745 L50.0886525,32.6595745 L50.0886525,26.3297872 L54.3085106,26.3297872 L54.3085106,32.6595745 L60.6382979,32.6595745 L60.6382979,36.8794326 L24.7695035,32.6595745 Z"/>
</svg>
