<svg xmlns="http://www.w3.org/2000/svg" width="44" height="46" viewBox="0 0 44 46" style="background:#cf285a">
  <path d="M11.4545455,45.8181818 L0,45.8181818 L0,34.3636364 L11.4545455,34.3636364 L11.4545455,45.8181818 Z M26.7272727,28.6363636 L15.2727273,28.6363636 L15.2727273,45.8181818 L26.7272727,45.8181818 L26.7272727,28.6363636 Z M42,21 L30.5454545,21 L30.5454545,45.8181818 L42,45.8181818 L42,21 Z M42,1.69561335e-15 L30.5454545,2.331 L33.8214545,5.59172727 L20.7441818,18.4456364 L15.015,12.7145455 L0.0458181818,27.5997273 L2.73763636,30.3068182 L15.0073636,18.1077273 L20.7174545,23.8216364 L36.5247273,8.28736364 L39.7071818,11.4564545 L42,0 L42,1.69561335e-15 Z"/>
</svg>
