<svg xmlns="http://www.w3.org/2000/svg" width="70" height="70" viewBox="0 0 70 70">
  <path fill="#000000" d="M34.6170213,19.3557181 C39.587766,19.3557181 40.177305,19.3743351 42.1414007,19.4643174 C47.1866135,19.6939273 49.5432181,22.087766 49.772828,27.0957447 C49.8628103,29.058289 49.8798759,29.647828 49.8798759,34.6185727 C49.8798759,39.5908688 49.8612589,40.1788564 49.772828,42.1414007 C49.5416667,47.1447252 47.1912677,49.5432181 42.1414007,49.772828 C40.177305,49.8628103 39.5908688,49.8814273 34.6170213,49.8814273 C29.6462766,49.8814273 29.0567376,49.8628103 27.0941933,49.772828 C22.0365691,49.5416667 19.6923759,47.1369681 19.462766,42.1398493 C19.3727837,40.177305 19.3541667,39.5893174 19.3541667,34.6170213 C19.3541667,29.6462766 19.3743351,29.058289 19.462766,27.0941933 C19.6939273,22.087766 22.0443262,19.6923759 27.0941933,19.462766 C29.058289,19.3743351 29.6462766,19.3557181 34.6170213,19.3557181 L34.6170213,19.3557181 Z M34.6170213,16 C29.5609486,16 28.9279699,16.0217199 26.9421543,16.1117021 C20.1810727,16.4219858 16.4235372,20.1733156 16.1132535,26.9406028 C16.0217199,28.9279699 16,29.5609486 16,34.6170213 C16,39.673094 16.0217199,40.3076241 16.1117021,42.2934397 C16.4219858,49.0545213 20.1733156,52.8120567 26.9406028,53.1223404 C28.9279699,53.2123227 29.5609486,53.2340426 34.6170213,53.2340426 C39.673094,53.2340426 40.3076241,53.2123227 42.2934397,53.1223404 C49.0483156,52.8120567 52.8151596,49.060727 53.120789,42.2934397 C53.2123227,40.3076241 53.2340426,39.673094 53.2340426,34.6170213 C53.2340426,29.5609486 53.2123227,28.9279699 53.1223404,26.9421543 C52.8182624,20.1872784 49.0622784,16.4235372 42.2949911,16.1132535 C40.3076241,16.0217199 39.673094,16 34.6170213,16 L34.6170213,16 Z M34.6170213,25.0571809 C29.3375443,25.0571809 25.0571809,29.3375443 25.0571809,34.6170213 C25.0571809,39.8964982 29.3375443,44.1784131 34.6170213,44.1784131 C39.8964982,44.1784131 44.1768617,39.8980496 44.1768617,34.6170213 C44.1768617,29.3375443 39.8964982,25.0571809 34.6170213,25.0571809 Z M34.6170213,40.822695 C31.1899379,40.822695 28.4113475,38.045656 28.4113475,34.6170213 C28.4113475,31.1899379 31.1899379,28.4113475 34.6170213,28.4113475 C38.0441046,28.4113475 40.822695,31.1899379 40.822695,34.6170213 C40.822695,38.045656 38.0441046,40.822695 34.6170213,40.822695 Z M44.5554078,22.4461436 C43.3204787,22.4461436 42.3198138,23.4468085 42.3198138,24.6801862 C42.3198138,25.9135638 43.3204787,26.9142287 44.5554078,26.9142287 C45.7887855,26.9142287 46.7878989,25.9135638 46.7878989,24.6801862 C46.7878989,23.4468085 45.7887855,22.4461436 44.5554078,22.4461436 Z"/>
</svg>
