<svg xmlns="http://www.w3.org/2000/svg" width="24" height="22" viewBox="0 0 24 22">
  <path fill="#4A4A4A" d="M7.961,6.5 L9.264,6.5 L11.734,13 L10.385,13 L9.847,11.5 L7.409,11.5 L6.874,13 L5.482,13 L7.961,6.5 L7.961,6.5 Z M9.478,10.465 L8.621,8.014 L7.77,10.465 L9.478,10.465 Z M17.57,9.063 C17.632,8.82 17.67,8.637 17.705,8.458 L16.605,8.244 L16.496,8.744 C16.125,8.69 15.729,8.683 15.33,8.723 C15.339,8.455 15.355,8.192 15.379,7.939 L16.608,7.939 L16.608,6.897 L15.527,6.897 C15.581,6.632 15.626,6.473 15.671,6.322 L14.597,6 C14.518,6.263 14.452,6.521 14.386,6.897 L13.16,6.897 L13.16,7.939 L14.252,7.939 C14.224,8.276 14.206,8.625 14.201,8.977 C12.994,9.42 12.482,10.265 12.482,11.031 C12.482,11.935 13.196,12.731 14.324,12.629 C15.725,12.501 16.661,11.443 17.209,10.142 C17.776,10.469 18.014,11.018 17.8,11.527 C17.603,11.998 17.02,12.446 15.908,12.423 L15.908,13.544 C17.142,13.563 18.356,13.094 18.833,11.961 C19.298,10.853 18.767,9.643 17.57,9.063 Z M16.124,9.829 C15.949,10.216 15.72,10.6 15.427,10.904 C15.382,10.581 15.351,10.228 15.334,9.85 C15.602,9.815 15.871,9.809 16.124,9.829 L16.124,9.829 Z M14.23,10.191 C14.26,10.664 14.314,11.1 14.388,11.489 C13.391,11.672 13.351,10.688 14.23,10.191 Z M12,2 C17.514,2 22,5.592 22,10.007 C22,14.924 16.855,17.968 12.09,17.968 C10.153,17.968 8.706,17.571 7.696,17.324 C6.696,17.937 6.102,18.361 3.424,19.144 C3.959,17.771 4.146,16.396 4.025,14.879 C3.188,13.879 2,12.479 2,10.007 C2,5.592 6.486,2 12,2 L12,2 Z M12,1.77635684e-15 C5.662,1.77635684e-15 0,4.226 0,10.007 C0,12.057 0.739,14.07 2.047,15.632 C2.102,17.462 1.024,20.088 0.054,22 C2.656,21.53 6.355,20.492 8.032,19.464 C9.449,19.809 10.806,19.967 12.091,19.967 C19.174,19.967 24.001,15.13 24.001,10.006 C24,4.195 18.299,0 12,0 L12,1.77635684e-15 Z"/>
</svg>
