<svg xmlns="http://www.w3.org/2000/svg" width="70" height="70" viewBox="0 0 70 70">
  <path fill="#000000" d="M24.0351064,20.0336879 C24.0351064,22.2618972 22.2441489,24.0673759 20.0336879,24.0673759 C17.823227,24.0673759 16.0322695,22.2618972 16.0322695,20.0336879 C16.0322695,17.8070922 17.823227,16 20.0336879,16 C22.2441489,16 24.0351064,17.8070922 24.0351064,20.0336879 Z M24.0673759,27.2943262 L16,27.2943262 L16,53.1099291 L24.0673759,53.1099291 L24.0673759,27.2943262 Z M36.9461348,27.2943262 L28.9303901,27.2943262 L28.9303901,53.1099291 L36.9477482,53.1099291 L36.9477482,39.5583511 C36.9477482,32.023422 46.6753901,31.4070745 46.6753901,39.5583511 L46.6753901,53.1099291 L54.7234043,53.1099291 L54.7234043,36.7638121 C54.7234043,24.0496277 40.3279787,24.512695 36.9461348,30.7713652 L36.9461348,27.2943262 Z"/>
</svg>
