<svg xmlns="http://www.w3.org/2000/svg" width="44" height="46" viewBox="0 0 44 46" style="background:#cf285a">
  <path d="M7.60136828,17.878121 L11.178657,17.878121 L11.715517,34.3335309 L7.15457753,34.3335309 L7.60136828,17.878121 Z M4.56093948,35.2280012 L39.4393568,35.2280012 L39.4393568,37.1058259 L42.1221752,37.1058259 L42.1221752,39.7889407 L44,39.7889407 L44,41.6670617 L0,41.6670617 L0,39.7889407 L1.87782476,39.7889407 L1.87782476,37.1058259 L4.56093948,37.1058259 L4.56093948,35.2280012 Z M41.2274086,13.0487516 L41.2274086,14.2116519 L2.7722951,14.2116519 L2.7722951,13.0487516 L21.9997037,5 L41.2274086,13.0487516 Z M6.43876424,15.1058259 L37.5606432,15.1058259 L37.5606432,16.8938778 L6.43876424,16.8938778 L6.43876424,15.1058259 Z M32.73157,17.878121 L36.3082662,17.878121 L36.8451262,34.3335309 L32.2841867,34.3335309 L32.73157,17.878121 Z M24.3252081,17.878121 L27.9916772,17.878121 L28.5285372,34.3335309 L23.8778248,34.3335309 L24.3252081,17.878121 Z M16.0077302,17.878121 L19.585019,17.878121 L20.1215827,34.3335309 L15.4711665,34.3335309 L16.0077302,17.878121 Z"/>
</svg>
