<svg xmlns="http://www.w3.org/2000/svg" width="44" height="46" viewBox="0 0 44 46" style="background:#cf285a">
  <path d="M7.05833738,9.5415091 C6.55190783,9.15474743 6.45475478,8.43072588 6.84136224,7.92414211 C10.6852304,2.88822142 16.5161098,0 22.8389229,0 C29.161736,0 34.9926154,2.88822142 38.8366378,7.92414211 C39.223091,8.43072588 39.125938,9.15474743 38.6195084,9.5415091 C38.4105522,9.70096347 38.164277,9.77806907 37.9203149,9.77806907 C37.5727228,9.77806907 37.2292945,9.62185313 37.0021414,9.32437974 C33.5985462,4.8652089 28.4363265,2.30777049 22.8389229,2.30777049 C17.2415193,2.30777049 12.0792996,4.86505469 8.67570437,9.32437974 C8.2889427,9.83080929 7.56507536,9.92811656 7.05833738,9.5415091 Z M35.1044185,15.6965404 L35.1044185,15.6965404 C35.1044185,13.709375 36.7211686,12.0927791 38.7081798,12.0927791 C40.6951911,12.0927791 42.3119412,13.7095292 42.3119412,15.6965404 C42.3119412,17.6835516 40.6951911,19.3003018 38.7081798,19.3003018 C36.7211686,19.3003018 35.1044185,17.6835516 35.1044185,15.6965404 Z M42.3962947,20.4962096 L42.3962947,20.4962096 C43.8572916,20.9833627 44.839,22.3452018 44.839,23.8851547 L44.839,29.3332819 C44.839,29.5433176 44.7774697,29.7488811 44.6619656,29.9245276 L42.8348713,32.7051096 L42.8348713,40.007318 C42.8348713,40.6021106 42.3528072,41.0841748 41.7580146,41.0841748 L35.6584993,41.0841748 C35.0637067,41.0841748 34.5816425,40.6021106 34.5816425,40.007318 L34.5816425,32.7051096 L32.7545483,29.9245276 C32.6388899,29.7490353 32.5775139,29.5434718 32.5775139,29.3332819 L32.5775139,23.8851547 C32.5775139,22.3452018 33.5590681,20.9833627 35.020065,20.4962096 C35.0283924,20.4934338 35.9363879,20.2147741 35.9363879,20.2147741 C36.2648577,20.1142284 36.622165,20.1760671 36.8975862,20.3822475 L38.7081798,21.7379181 L40.5187734,20.3822475 C40.7940404,20.1762213 41.1511935,20.1143826 41.4799718,20.2147741 C41.4799718,20.2147741 42.3879673,20.4934338 42.3962947,20.4962096 Z M6.96966595,19.3003018 C4.98250052,19.3003018 3.36575038,17.6837058 3.36575038,15.6965404 C3.36575038,13.709375 4.98265474,12.0927791 6.96966595,12.0927791 C8.95667716,12.0927791 10.5734273,13.7095292 10.5734273,15.6965404 C10.5734273,17.6835516 8.95667716,19.3003018 6.96966595,19.3003018 Z M10.6577808,20.4962096 C12.1186234,20.9833627 13.1003319,22.3452018 13.1003319,23.8851547 L13.1003319,29.3332819 C13.1003319,29.5433176 13.0388016,29.7488811 12.9232974,29.9245276 L11.0962032,32.7051096 L11.0962032,40.007318 C11.0962032,40.6021106 10.6141391,41.0841748 10.0193465,41.0841748 L3.91998541,41.0841748 C3.32519284,41.0841748 2.84312865,40.6021106 2.84312865,40.007318 L2.84312865,32.7051096 L1.01603445,29.9245276 C0.900376055,29.7490353 0.839,29.5434718 0.839,29.3332819 L0.839,23.8851547 C0.839,22.3452018 1.82055424,20.9833627 3.28155107,20.4962096 C3.28987848,20.4934338 4.19787398,20.2147741 4.19787398,20.2147741 C4.52634382,20.1142284 4.88380536,20.1760671 5.15907234,20.3822475 L6.96966595,21.7379181 L8.78025955,20.3822475 C9.05568074,20.1762213 9.41252544,20.1143826 9.74145792,20.2147741 C9.74145792,20.2147741 10.6494534,20.4934338 10.6577808,20.4962096 Z M27.4871567,10.6175948 C27.4871567,13.180739 25.4019129,15.2658286 22.8389229,15.2658286 C20.2759329,15.2658286 18.1906891,13.180739 18.1906891,10.6175948 C18.1906891,8.05460478 20.2759329,5.96936104 22.8389229,5.96936104 C25.4019129,5.96936104 27.4871567,8.05460478 27.4871567,10.6175948 Z M27.9443928,17.5185456 L27.9443928,17.5185456 C29.6252948,18.0692338 30.7619855,19.6377159 30.7621397,21.4065182 L30.7621397,29.5248122 C30.7621397,29.6051563 30.7385454,29.683804 30.694441,29.75104 L27.7835506,34.1806023 L27.7835506,45.3886718 C27.7835506,45.6162875 27.599114,45.8007241 27.3714983,45.8007241 L18.3065017,45.8007241 C18.078886,45.8007241 17.8944494,45.6162875 17.8944494,45.3886718 L17.8944494,34.1806023 L14.983559,29.75104 C14.9394546,29.683804 14.9158603,29.6051563 14.9158603,29.5248122 L14.9158603,21.4277994 C14.9158603,19.6512864 16.0480788,18.0801828 17.7428598,17.5154614 C17.7428598,17.5154614 19.1494201,17.0906096 19.1893608,17.0906096 C19.3580679,17.0906096 19.5153633,17.1951648 19.5761225,17.3618671 L22.365803,25.0161396 C22.5267994,25.4576462 23.1512006,25.4576462 23.312197,25.0161396 L26.1018775,17.3618671 C26.1771326,17.1553783 26.4007388,17.0446547 26.6100034,17.1089607 L27.9366823,17.5160783 L27.9443928,17.5185456 Z M23.9288876,17.357395 L23.9288876,17.357395 C24.10731,17.5518553 24.1332174,17.8326738 24.0064558,18.0521164 L23.3268471,19.0766955 L23.6449848,21.7607413 L23.0184247,23.4274559 C22.9572029,23.5950835 22.7201803,23.5950835 22.6591126,23.4274559 L22.0325526,21.7607413 L22.3506903,19.0766955 L21.6710815,18.0521164 C21.5444741,17.8326738 21.5703816,17.5518553 21.748804,17.357395 C21.8641539,17.231867 22.0327068,17.1686405 22.2031101,17.1686405 L23.4745814,17.1686405 C23.645139,17.1686405 23.8136918,17.231867 23.9288876,17.357395 Z"/>
</svg>
