<svg xmlns="http://www.w3.org/2000/svg" width="25" height="30" viewBox="0 0 25 30">
  <path d="M22.4807033,19.6153558 C22.2392768,19.0396199 21.6587103,18.6700134 21.1047864,18.4431997 L19.2583021,17.5945741 C19.2563021,16.2410383 19.2435165,9.49953579 19.2510878,8.79049332 C19.2620163,7.68745119 19.1303746,6.70223806 18.8400913,5.84997486 L21.1392147,5.02046435 L21.1445003,7.14152914 L20.988216,7.14145781 C20.879574,7.13190025 20.7835748,7.20992988 20.7710749,7.31820132 L20.5687195,9.0698736 C20.5624339,9.12315342 20.5783623,9.17636192 20.6122191,9.21830106 C20.6460046,9.26002622 20.6955042,9.2869871 20.7489323,9.29148058 L22.3547758,9.29090998 C22.4087753,9.28484735 22.4579892,9.259099 22.491346,9.21715986 C22.5256315,9.17536337 22.5408456,9.12129897 22.5348457,9.06780517 C22.494346,8.72380438 22.4539892,8.38030287 22.4139181,8.03630208 L22.3300617,7.31627555 C22.3172761,7.20893132 22.2210626,7.13075905 22.112635,7.14038794 L21.9563506,7.14060191 L21.9597077,4.72389473 L22.0414213,4.69429483 L22.3132761,4.59622286 C22.5437742,4.51320049 22.6969872,4.29487446 22.6969872,4.05058611 C22.6969872,3.80615512 22.5437027,3.58782909 22.3132761,3.50473539 L12.6976435,0.0347709693 C12.5698588,-0.0115903231 12.4302172,-0.0115903231 12.3025754,0.0347709693 L2.6865856,3.50480672 C2.45608756,3.58790042 2.30273172,3.80629777 2.30273172,4.05065744 C2.30273172,4.29501711 2.45608756,4.51327181 2.6865856,4.59629419 L6.17362743,5.85475364 C5.86913001,6.72898496 5.73055976,7.73994643 5.74191681,8.86887957 L5.74205966,17.5942888 L3.89528963,18.4431997 C3.3412229,18.6700134 2.79651324,19.0149414 2.51937274,19.6153558 C2.51937274,19.6153558 -1.55187842,30 0.656459979,30 L24.3434018,30 C26.5520259,29.999786 22.4807033,19.6153558 22.4807033,19.6153558 Z M16.2010423,18.7235072 C16.2010423,18.7235072 13.1017115,19.7489477 12.504788,23.3507208 C12.5032166,23.360207 12.4972166,23.360207 12.4955738,23.3507208 C11.8985074,19.7489477 8.79931942,18.7235072 8.79931942,18.7235072 L10.8306593,16.7091447 C7.96689792,15.4265774 7.20533296,11.0654063 7.20533296,11.0654063 C7.04347719,10.434964 7.02397735,10.0037327 7.02397735,10.0037327 C8.4577509,9.90623131 13.461637,9.47585587 13.8037055,7.85606364 C14.2753444,8.72622944 16.7723232,10.912842 17.7826003,11.0788867 C17.7826003,11.0788867 16.8019658,15.3914141 14.1234171,16.7060777 L16.2010423,18.7235072 Z"/>
</svg>
