<svg xmlns="http://www.w3.org/2000/svg" width="35" height="35" viewBox="0 0 35 35">
  <path fill="#000000" d="M34.0901591,30.9931364 L25.2057273,22.1087045 C26.8766591,19.8106364 27.8646136,16.9842273 27.8646136,13.9315909 C27.8646136,6.24988636 21.6147273,0 13.9315909,0 C6.24988636,0 0,6.24988636 0,13.9315909 C0,21.6147273 6.24988636,27.8631818 13.9315909,27.8631818 C16.8439091,27.8631818 19.5486136,26.9654318 21.7879773,25.4319545 L30.7196591,34.3636364 L34.0901591,30.9931364 L34.0901591,30.9931364 Z M4.08640909,13.9315909 C4.08640909,8.50213636 8.50356818,4.08497727 13.9330227,4.08497727 C19.3624773,4.08497727 23.7796364,8.50213636 23.7796364,13.9315909 C23.7796364,19.3610455 19.3624773,23.7782045 13.9330227,23.7782045 C8.50213636,23.7782045 4.08640909,19.3610455 4.08640909,13.9315909 L4.08640909,13.9315909 Z"/>
</svg>
