<svg xmlns="http://www.w3.org/2000/svg" width="70" height="70" viewBox="0 0 70 70">
  <path fill="#000000" d="M52.4159574,22.7403119 C54.3093085,21.6067678 55.7632979,19.8105937 56.4465426,17.6700753 C54.6760638,18.71986 52.7138298,19.4830013 50.625,19.8943531 C48.9550532,18.1130696 46.5702128,17 43.9340426,17 C38.0156915,17 33.6667553,22.5206761 35.0034574,28.2516813 C27.387234,27.8701107 20.6329787,24.2219228 16.1109043,18.6770496 C13.7093085,22.7961515 14.8654255,28.1846738 18.9462766,30.9133694 C17.4457447,30.8649751 16.0308511,30.4536233 14.7965426,29.7667961 C14.6960106,34.0124677 17.7398936,37.9845253 22.1484043,38.8686524 C20.8582447,39.2185806 19.4452128,39.3004787 18.0079787,39.0250033 C19.1734043,42.6657459 22.5579787,45.3144047 26.5718085,45.3888575 C22.7180851,48.4097804 17.862766,49.7592376 13,49.1859509 C17.0566489,51.7862154 21.8765957,53.3031915 27.0521277,53.3031915 C44.0718085,53.3031915 53.6875,38.9319373 53.1066489,26.0422941 C54.8976064,24.7486765 56.4521277,23.1349118 57.6808511,21.2977886 C56.0369681,22.0274262 54.2702128,22.5188147 52.4159574,22.7403119 Z"/>
</svg>
